<?xml version="1.0" encoding="UTF-8" standalone="no"?>
<!-- Created with Inkscape (http://www.inkscape.org/) -->

<svg
   width="61.1712mm"
   height="21.951668mm"
   viewBox="0 0 61.1712 21.951668"
   version="1.1"
   id="svg1"
   xml:space="preserve"
   inkscape:version="1.4 (e7c3feb100, 2024-10-09)"
   sodipodi:docname="isf-logo.svg"
   inkscape:export-filename="logo.png"
   inkscape:export-xdpi="96"
   inkscape:export-ydpi="96"
   xmlns:inkscape="http://www.inkscape.org/namespaces/inkscape"
   xmlns:sodipodi="http://sodipodi.sourceforge.net/DTD/sodipodi-0.dtd"
   xmlns:xlink="http://www.w3.org/1999/xlink"
   xmlns="http://www.w3.org/2000/svg"
   xmlns:svg="http://www.w3.org/2000/svg"><sodipodi:namedview
     id="namedview1"
     pagecolor="#ffffff"
     bordercolor="#eeeeee"
     borderopacity="1"
     inkscape:showpageshadow="0"
     inkscape:pageopacity="0"
     inkscape:pagecheckerboard="0"
     inkscape:deskcolor="#505050"
     inkscape:document-units="mm"
     inkscape:zoom="4.7021969"
     inkscape:cx="138.44592"
     inkscape:cy="77.623291"
     inkscape:window-width="2554"
     inkscape:window-height="1407"
     inkscape:window-x="0"
     inkscape:window-y="0"
     inkscape:window-maximized="1"
     inkscape:current-layer="layer1"
     showborder="true" /><defs
     id="defs1"><rect
       x="138.42114"
       y="302.32278"
       width="406.99948"
       height="188.00484"
       id="rect27" /><rect
       x="184.56152"
       y="285.10623"
       width="410.44278"
       height="208.6647"
       id="rect26" /><rect
       x="182.49553"
       y="283.72891"
       width="421.46136"
       height="278.90826"
       id="rect24" /><rect
       x="196.95744"
       y="298.87946"
       width="375.32101"
       height="214.174"
       id="rect23" /><rect
       x="335.75742"
       y="84.000229"
       width="129.53079"
       height="80.104568"
       id="rect21" /><rect
       x="358.64444"
       y="90.330681"
       width="82.539352"
       height="83.756752"
       id="rect20" /><rect
       x="339.89658"
       y="94.469818"
       width="331.13132"
       height="149.00909"
       id="rect19" /><rect
       x="346.71399"
       y="114.92205"
       width="321.39218"
       height="112.97422"
       id="rect18" /><linearGradient
       id="swatch18"
       inkscape:swatch="solid"><stop
         style="stop-color:#000000;stop-opacity:1;"
         offset="0"
         id="stop18" /></linearGradient><linearGradient
       id="swatch12"
       inkscape:swatch="solid"><stop
         style="stop-color:#000000;stop-opacity:1;"
         offset="0"
         id="stop12" /></linearGradient><linearGradient
       id="swatch6"
       inkscape:swatch="solid"><stop
         style="stop-color:#000000;stop-opacity:1;"
         offset="0"
         id="stop6" /></linearGradient><inkscape:perspective
       sodipodi:type="inkscape:persp3d"
       inkscape:vp_x="-43.876692 : -293.49986 : 1"
       inkscape:vp_y="0 : 1480.8618 : 0"
       inkscape:vp_z="225.5993 : -293.49986 : 1"
       inkscape:persp3d-origin="90.861303 : -366.80252 : 1"
       id="perspective1" /><linearGradient
       inkscape:collect="always"
       xlink:href="#swatch18"
       id="linearGradient18"
       x1="50.526676"
       y1="92.106445"
       x2="78.907806"
       y2="92.106445"
       gradientUnits="userSpaceOnUse"
       gradientTransform="matrix(0.22178402,0,0,0.22178402,77.550773,-35.087982)" /><linearGradient
       inkscape:collect="always"
       xlink:href="#swatch18"
       id="linearGradient28"
       gradientUnits="userSpaceOnUse"
       gradientTransform="matrix(0.24052562,0,0,0.24052562,75.940701,-63.045408)"
       x1="50.526676"
       y1="92.106445"
       x2="78.907806"
       y2="92.106445" /><linearGradient
       inkscape:collect="always"
       xlink:href="#swatch18"
       id="linearGradient29"
       gradientUnits="userSpaceOnUse"
       gradientTransform="matrix(0.22178402,0,0,0.22178402,-83.197603,-103.23965)"
       x1="50.526676"
       y1="92.106445"
       x2="78.907806"
       y2="92.106445" /><rect
       x="138.42114"
       y="302.32278"
       width="406.99948"
       height="188.00484"
       id="rect7" /><rect
       x="138.42114"
       y="302.32278"
       width="406.99948"
       height="188.00484"
       id="rect7-7" /><rect
       x="138.42114"
       y="302.32278"
       width="406.99948"
       height="188.00484"
       id="rect7-2" /><rect
       x="138.42114"
       y="302.32278"
       width="406.99948"
       height="188.00484"
       id="rect7-2-2" /><rect
       x="138.42114"
       y="302.32278"
       width="406.99948"
       height="188.00484"
       id="rect7-20" /><rect
       x="138.42114"
       y="302.32278"
       width="406.99948"
       height="188.00484"
       id="rect7-22" /></defs><g
     inkscape:label="Calque 1"
     inkscape:groupmode="layer"
     id="layer1"
     transform="translate(-34.152873,-79.650758)"><path
       id="rect28"
       style="fill:#ffffff;stroke:url(#linearGradient28);stroke-width:0.240525;fill-opacity:0"
       transform="rotate(90)"
       d="m 88.702674,-44.258114 h 5.231524 c 0.270761,0 0.488738,0.217977 0.488738,0.488738 v 5.231525 c 0,0.27076 -0.217977,0.488737 -0.488738,0.488737 h -5.231524 c -0.270761,0 -0.488738,-0.217977 -0.488738,-0.488737 v -5.231525 c 0,-0.270761 0.217977,-0.488738 0.488738,-0.488738 z" /><path
       d="m 156.19962,324.54445 h -1.77777 v 1.77778 h -15.99998 v -3.55555 h 10.66665 v -3.55555 h -8.88887 v -1.77778 h -1.77778 v -7.1111 h 1.77778 v -1.77777 h 15.99997 v 3.55555 h -10.66665 v 3.55555 h 8.88888 v 1.77777 h 1.77777 z"
       id="text6-9"
       style="font-size:21.3333px;font-family:'8BIT WONDER';-inkscape-font-specification:'8BIT WONDER';white-space:pre;stroke:#000000"
       transform="matrix(0.26458333,0,0,0.26458333,2.11876,7.3177318)"
       aria-label="S" /><path
       d="m 156.19962,326.32223 h -7.1111 v -7.1111 h -3.55555 v 7.1111 h -7.1111 v -6.368 c 0.61037,-4.00077 4.90717,-10.442 0,-10.96039 v -0.44936 h 15.99998 v 1.77777 h 1.77777 v 5.33333 h -1.77777 v 3.55555 h 1.77777 z m -7.1111,-10.66665 v -3.55555 h -3.55555 v 3.55555 z m 28.4444,8.88887 h -1.77777 v 1.77778 h -14.2222 v -1.77778 h -1.77778 v -14.2222 h 1.77778 v -1.77777 h 14.2222 v 1.77777 h 1.77777 z m -7.1111,-1.77777 v -10.66665 h -3.55555 v 10.66665 z m 28.4444,3.55555 h -7.1111 v -14.2222 h -3.55555 v 14.2222 h -7.1111 v -17.77775 h 15.99998 v 1.77777 h 1.77777 z m 21.33331,-14.2222 h -5.33333 v 14.2222 h -7.1111 v -14.2222 h -5.33332 v -3.55555 h 17.77775 z m 10.66664,14.2222 h -7.1111 v -17.77775 h 7.1111 z m 21.3333,0 H 236.1995 v -1.77778 h -1.77778 v -14.2222 h 1.77778 v -1.77777 h 15.99997 v 3.55555 h -10.66665 v 3.55555 h 5.33333 v 3.55555 h -5.33333 v 3.55555 h 10.66665 z m 21.3333,0 h -7.1111 v -7.1111 h -3.55555 v 7.1111 h -7.1111 v -17.77775 h 15.99997 v 1.77777 h 1.77778 v 5.33333 h -1.77778 v 3.55555 h 1.77778 z m -7.1111,-10.66665 v -3.55555 h -3.55555 v 3.55555 z m 28.4444,10.66665 h -15.99998 v -1.77778 h -1.77777 v -14.2222 h 1.77777 v -1.77777 h 15.99998 v 3.55555 h -10.66665 v 3.55555 h 5.33332 v 3.55555 h -5.33332 v 3.55555 h 10.66665 z m 21.3333,-1.77778 h -1.77778 v 1.77778 h -15.99997 v -3.55555 h 10.66665 v -3.55555 h -8.88888 v -1.77778 h -1.77777 v -7.1111 h 1.77777 v -1.77777 h 15.99998 v 3.55555 h -10.66665 v 3.55555 h 8.88887 v 1.77777 h 1.77778 z"
       id="text6-0-1"
       style="font-size:21.3333px;font-family:'8BIT WONDER';-inkscape-font-specification:'8BIT WONDER';white-space:pre;stroke:#000000"
       transform="matrix(0.26458333,0,0,0.26458333,11.530698,13.620007)"
       aria-label="rontieres"
       sodipodi:nodetypes="cccccccccccccccccccccccccccccccccccccccccccccccccccccccccccccccccccccccccccccccccccccccccccccccccccccccccccccccccccccccccccccccccccccccccccc" /><path
       id="rect29"
       style="fill:#ffffff;fill-opacity:0;stroke:url(#linearGradient29);stroke-width:0.221784"
       transform="rotate(-165)"
       d="m -71.430051,-85.916252 5.30737,0 c 0.249663,0 0.450656,0.200992 0.450656,0.450655 v 5.307342 c 0,-0.01625 -0.236069,0.05901 -0.38699,0.100126 -0.09242,0.02518 -0.249866,0.06977 -0.324837,0.101583 l -0.321559,0.07645 -0.180236,0.08056 -0.08497,0.09194 -4.459434,0 c -0.249663,0 -0.450656,-0.200992 -0.450656,-0.450655 v -5.307342 c 0,-0.249663 0.200993,-0.450655 0.450655,-0.450655 z"
       sodipodi:nodetypes="sssssscccssss" /><path
       d="m 156.19962,312.10003 h -10.66665 v 3.55555 h 5.33333 v 3.55555 h -5.33333 v 7.1111 h -7.1111 v -15.99998 h 1.77778 v -1.77777 h 15.99997 z"
       id="text6-3"
       style="font-size:21.3333px;font-family:'8BIT WONDER';-inkscape-font-specification:'8BIT WONDER';white-space:pre;stroke:#000000"
       transform="matrix(0.25541202,0.06905823,-0.06905823,0.25541202,29.315866,6.61337)"
       aria-label="F" /><path
       d="m 166.86627,326.32223 h -7.1111 v -14.2222 h -3.55555 v 14.2222 h -7.1111 v -14.2222 h -3.55555 v 14.2222 h -5.50287 l -1.60823,-8.82033 v -8.95742 h 26.66663 v 1.77777 h 1.77777 z m 21.33331,0 h -7.1111 v -7.1111 h -3.55555 v 7.1111 h -7.1111 v -15.99998 h 1.77777 v -1.77777 h 14.2222 v 1.77777 h 1.77778 z m -7.1111,-10.66665 v -3.55555 h -3.55555 v 3.55555 z m 28.4444,10.66665 h -7.1111 v -14.2222 h -3.55555 v 14.2222 h -7.1111 v -17.77775 h 15.99997 v 1.77777 h 1.77778 z m 21.33329,0 h -7.1111 v -7.1111 h -3.55555 v 7.1111 h -7.1111 v -15.99998 h 1.77778 v -1.77777 h 14.2222 v 1.77777 h 1.77777 z m -7.1111,-10.66665 v -3.55555 h -3.55555 v 3.55555 z m 17.77775,10.66665 h -7.1111 v -17.77775 h 7.1111 z m 21.3333,0 h -7.1111 v -7.1111 h -3.55555 v 7.1111 h -7.1111 v -17.77775 h 15.99998 v 1.77777 h 1.77777 v 5.33333 h -1.77777 v 3.55555 h 1.77777 z m -7.1111,-10.66665 v -3.55555 h -3.55555 v 3.55555 z m 28.44441,10.66665 h -15.99998 v -1.77778 h -1.77777 v -14.2222 h 1.77777 v -1.77777 h 15.99998 v 3.55555 h -10.66665 v 3.55555 h 5.33332 v 3.55555 h -5.33332 v 3.55555 h 10.66665 z m 21.33329,-1.77778 h -1.77777 v 1.77778 h -15.99998 v -3.55555 h 10.66665 v -3.55555 h -8.88887 v -1.77778 h -1.77778 v -7.1111 h 1.77778 v -1.77777 h 15.99997 v 3.55555 h -10.66665 v 3.55555 h 8.88888 v 1.77777 h 1.77777 z"
       id="text26"
       style="font-size:21.3333px;font-family:'8BIT WONDER';-inkscape-font-specification:'8BIT WONDER';white-space:pre;stroke:#000000"
       transform="matrix(0.26458333,0,0,0.26458333,4.6745819,0.80328172)"
       aria-label="manaires"
       sodipodi:nodetypes="cccccccccccccccccccccccccccccccccccccccccccccccccccccccccccccccccccccccccccccccccccccccccccccccccccccccccccccccccccccccccccccc" /><path
       d="m 156.19962,352.98885 h -7.1111 v -7.1111 h -3.55555 v 7.1111 h -7.1111 v -15.99997 h 1.77778 v -1.77778 h 14.2222 v 1.77778 h 1.77777 z m -7.1111,-10.66665 v -3.55555 h -3.55555 v 3.55555 z m 28.4444,10.66665 h -7.1111 v -14.2222 h -3.55555 v 14.2222 h -7.1111 V 335.2111 h 15.99998 v 1.77778 h 1.77777 z m 21.3333,-1.77777 h -1.77777 v 1.77777 h -15.99998 v -3.55555 h 10.66665 v -3.55555 h -8.88887 v -1.77777 h -1.77778 v -7.1111 h 1.77778 v -1.77778 h 15.99997 v 3.55555 h -10.66665 v 3.55555 h 8.88888 v 1.77778 h 1.77777 z"
       id="text6-0"
       style="font-size:21.3333px;font-family:'8BIT WONDER';-inkscape-font-specification:'8BIT WONDER';white-space:pre;stroke:#000000"
       transform="matrix(0.26458333,0,0,0.26458333,8.2661332,0.25872666)"
       aria-label="&#10;ans" /><path
       d="m 68.614861,81.535874 a 0.29001788,0.29001788 0 0 1 -0.290018,0.290018 h -1.450089 a 0.29001788,0.29001788 0 0 1 -0.290018,-0.290018 v -1.450089 a 0.29001788,0.29001788 0 0 1 0.290018,-0.290018 h 1.450089 a 0.29001788,0.29001788 0 0 1 0.290018,0.290018 z m 0.145009,-1.450089 a 0.43502682,0.43502682 0 0 0 -0.435027,-0.435027 h -1.450089 a 0.43502682,0.43502682 0 0 0 -0.435027,0.435027 v 1.450089 a 0.43502682,0.43502682 0 0 0 0.435027,0.435027 h 1.450089 a 0.43502682,0.43502682 0 0 0 0.435027,-0.435027 z"
       id="path7"
       style="fill:#000000;stroke-width:0.145009" /><path
       d="m 68.179834,80.448307 a 0.2175135,0.2175135 0 1 1 0,-0.435027 0.2175135,0.2175135 0 0 1 0,0.435027 z m -1.160071,1.160072 a 0.2175135,0.2175135 0 1 1 0,-0.435027 0.2175135,0.2175135 0 0 1 0,0.435027 z"
       id="path8"
       style="fill:#000000;stroke-width:0.145009" /><path
       d="m 72.659275,94.425723 a 0.29001788,0.29001788 0 0 1 -0.290018,0.290018 H 70.919168 A 0.29001788,0.29001788 0 0 1 70.62915,94.425723 v -1.450089 a 0.29001788,0.29001788 0 0 1 0.290018,-0.290018 h 1.450089 a 0.29001788,0.29001788 0 0 1 0.290018,0.290018 z m 0.145009,-1.450089 a 0.43502682,0.43502682 0 0 0 -0.435027,-0.435027 h -1.450089 a 0.43502682,0.43502682 0 0 0 -0.435027,0.435027 v 1.450089 a 0.43502682,0.43502682 0 0 0 0.435027,0.435027 h 1.450089 a 0.43502682,0.43502682 0 0 0 0.435027,-0.435027 z"
       id="path1-5-3"
       style="fill:#000000;stroke-width:0.145009" /><path
       d="m 72.224248,93.338156 a 0.2175135,0.2175135 0 1 1 0,-0.435027 0.2175135,0.2175135 0 0 1 0,0.435027 z m -1.160071,1.160072 a 0.2175135,0.2175135 0 1 1 0,-0.435027 0.2175135,0.2175135 0 0 1 0,0.435027 z"
       id="path2-1"
       style="fill:#000000;stroke-width:0.145009" /><path
       id="rect6"
       style="fill:#ffffff;stroke:url(#linearGradient18);stroke-width:0.221784;fill-opacity:0"
       transform="rotate(75)"
       d="m 89.318331,-17.764576 h 5.307689 c 0.249664,0 0.450656,0.200992 0.450656,0.450656 v 5.307689 c 0,0.249663 -0.200992,0.450655 -0.450656,0.450655 h -5.307689 c -0.249663,0 -0.450655,-0.200992 -0.450655,-0.450655 v -5.307689 c 0,-0.249664 0.200992,-0.450656 0.450655,-0.450656 z" /><path
       d="m 145.53297,326.32223 h -7.1111 v -17.77775 h 7.1111 z"
       id="text6"
       style="font-size:21.3333px;font-family:'8BIT WONDER';-inkscape-font-specification:'8BIT WONDER';white-space:pre;stroke:#000000"
       transform="matrix(0.25452474,-0.07225994,0.07225994,0.25452474,-21.114042,14.500039)"
       aria-label="I" /></g></svg>
